#!OML:ASF X:\für Bonn\!DataBase\2005_08_10_Bjorn_Final\c3d\bjorn.ASF
:FULLY-SPECIFIED
:DEGREES
92
root 2.37675 17.4112 -0.362979 -218.401 6.66221 174.729
lowerback 7.63325 -1.56171 5.37331
upperback 17.7737 1.62019 -1.39592
thorax 15.675 3.28189 -4.01472
lowerneck 5.03497 4.43384 0.579048
upperneck 11.8144 9.32009 -13.543
head 3.34344 4.99823 -4.02003
rclavicle -2.18663e-014 -1.82882e-014
rhumerus -21.2346 4.42858 -69.6749
rradius 72.7413
rwrist -11.5587
rhand -12.2807 19.2733
rfingers 7.12502
rthumb 13.7865 -10.2499
lclavicle -2.18663e-014 -1.82882e-014
lhumerus -44.5347 -25.1345 80.3729
lradius 66.6172
lwrist 17.6856
lhand -50.8407 -22.1924
lfingers 7.12502
lthumb -23.3958 6.40556
rfemur 27.3039 3.69028 16.571
rtibia 43.2119
rfoot -24.4364 23.94
rtoes 5.87524
lfemur -38.1294 9.85143 -9.25047
ltibia 27.2992
lfoot 2.85539 -3.4601
ltoes -23.4195
93
root 2.37291 17.4077 -0.336544 -218.04 6.18933 174.996
lowerback 7.75375 -1.67662 5.23
upperback 17.7515 1.48681 -1.39703
thorax 15.5417 3.19877 -3.94796
lowerneck 4.42364 4.55014 0.561353
upperneck 11.5092 9.40794 -13.7
head 3.366 5.00081 -4.04252
rclavicle 5.54112e-015 -1.90833e-014
rhumerus -21.1892 4.69142 -69.1693
rradius 71.2758
rwrist -11.2506
rhand -12.3764 19.0055
rfingers 7.12502
rthumb 13.6943 -10.5239
lclavicle 5.54112e-015 -1.90833e-014
lhumerus -43.3887 -25.9613 80.3752
lradius 66.858
lwrist 17.231
lhand -50.708 -22.3138
lfingers 7.12502
lthumb -23.2685 6.30029
rfemur 26.8338 3.19571 16.5041
rtibia 43.4172
rfoot -24.8269 23.5961
rtoes 4.4008
lfemur -37.7546 10.1573 -10.1815
ltibia 27.6141
lfoot -0.19162 -2.06218
ltoes -23.3603
94
root 2.36817 17.4069 -0.307369 -217.65 5.72263 175.273
lowerback 7.89193 -1.7873 5.11918
upperback 17.7232 1.35944 -1.39702
thorax 15.393 3.12238 -3.89788
lowerneck 3.78252 4.65337 0.561525
upperneck 11.2565 9.49346 -13.8554
head 3.41043 5.00164 -4.06537
rclavicle 9.31803e-015 2.38542e-015
rhumerus -21.1125 5.03273 -68.6726
rradius 69.7115
rwrist -10.8812
rhand -12.434 18.8775
rfingers 7.12502
rthumb 13.6387 -10.6556
lclavicle 9.31803e-015 2.38542e-015
lhumerus -42.3036 -26.8811 80.3141
lradius 67.2327
lwrist 16.615
lhand -50.7817 -22.3821
lfingers 7.12502
lthumb -23.3392 6.22299
rfemur 26.3264 2.67041 16.4155
rtibia 43.6058
rfoot -25.151 23.3136
rtoes 3.12094
lfemur -37.3772 10.4777 -11.0833
ltibia 28.0289
lfoot -2.48387 -0.311688
ltoes -22.112
95
root 2.3632 17.411 -0.27527 -217.207 5.26264 175.581
lowerback 7.96803 -1.91273 5.02546
upperback 17.7184 1.21069 -1.3783
thorax 15.3119 3.04017 -3.83326
lowerneck 3.17266 4.77421 0.519576
upperneck 10.956 9.5948 -14.0009
head 3.43534 5.01267 -4.07933
rclavicle 3.03147e-015 2.38542e-015
rhumerus -20.9246 5.65418 -68.1198
rradius 68.182
rwrist -10.6666
rhand -12.5172 18.7753
rfingers 7.12502
rthumb 13.5585 -10.7632
lclavicle 3.03147e-015 2.38542e-015
lhumerus -41.2452 -27.8233 80.1807
lradius 67.683
lwrist 15.8751
lhand -50.9484 -22.5028
lfingers 7.12502
lthumb -23.4992 6.08196
rfemur 25.768 2.13209 16.3595
rtibia 43.7602
rfoot -25.3604 23.0951
rtoes 2.1891
lfemur -37.0157 10.8091 -11.9316
ltibia 28.5432
lfoot -3.96565 1.55114
ltoes -21.5102
96
root 2.35713 17.4193 -0.240509 -216.738 4.84135 175.935
lowerback 8.05379 -2.03407 4.99648
upperback 17.7115 1.06493 -1.33361
thorax 15.2246 2.96541 -3.77505
lowerneck 2.72499 4.89014 0.484337
upperneck 10.5526 9.67082 -14.1504
head 3.40101 5.02405 -4.10394
rclavicle -3.32467e-014 -2.0276e-014
rhumerus -20.7139 6.09798 -67.6283
rradius 66.5671
rwrist -10.2297
rhand -12.4467 18.898
rfingers 7.12502
rthumb 13.6265 -10.636
lclavicle -3.32467e-014 -2.0276e-014
lhumerus -40.294 -28.9168 79.9752
lradius 68.2517
lwrist 15.0124
lhand -51.255 -22.4079
lfingers 7.12502
lthumb -23.7931 6.13881
rfemur 25.1866 1.58626 16.3646
rtibia 43.8812
rfoot -25.4875 22.9266
rtoes 1.4746
lfemur -36.6307 11.1652 -12.6867
ltibia 29.1338
lfoot -4.85737 3.37795
ltoes -21.1935
